<svg width="26" height="27" viewBox="0 0 26 27" fill="none" xmlns="http://www.w3.org/2000/svg">
<path d="M14.3098 1.66287C13.8414 1.29854 13.6072 1.11637 13.3485 1.04634C13.1204 0.984553 12.8798 0.984553 12.6517 1.04634C12.393 1.11637 12.1588 1.29854 11.6904 1.66287L2.64728 8.69637C2.04279 9.16654 1.74054 9.40162 1.5228 9.69602C1.32992 9.95679 1.18622 10.2506 1.0988 10.5629C1.00009 10.9156 1.00009 11.2985 1.00009 12.0643V21.7109C1.00009 23.2043 1.00009 23.951 1.29074 24.5215C1.5464 25.0233 1.95434 25.4313 2.45612 25.6869C3.02655 25.9775 3.77329 25.9775 5.26676 25.9775H7.93342C8.3068 25.9775 8.49348 25.9775 8.63609 25.9049C8.76153 25.841 8.86352 25.739 8.92743 25.6135C9.00009 25.4709 9.00009 25.2842 9.00009 24.9109V16.1109C9.00009 15.3641 9.00009 14.9907 9.14541 14.7055C9.27325 14.4546 9.47723 14.2507 9.72811 14.1229C10.0133 13.9775 10.3866 13.9775 11.1334 13.9775H14.8668C15.6136 13.9775 15.9869 13.9775 16.2721 14.1229C16.523 14.2507 16.7269 14.4546 16.8548 14.7055C17.0001 14.9907 17.0001 15.3641 17.0001 16.1109V24.9109C17.0001 25.2842 17.0001 25.4709 17.0728 25.6135C17.1366 25.739 17.2386 25.841 17.3641 25.9049C17.5068 25.9775 17.6934 25.9775 18.0668 25.9775H20.7334C22.2269 25.9775 22.9737 25.9775 23.5441 25.6869C24.0458 25.4313 24.4538 25.0233 24.7094 24.5215C25.0001 23.951 25.0001 23.2043 25.0001 21.7109V12.0643C25.0001 11.2985 25.0001 10.9156 24.9014 10.5629C24.814 10.2506 24.6702 9.95679 24.4774 9.69602C24.2597 9.40162 23.9574 9.16654 23.3529 8.69638L14.3098 1.66287Z" fill="#292B2D" stroke="#292B2D" stroke-width="2" stroke-linecap="round" stroke-linejoin="round"/>
</svg>
