<svg width="64" height="83" viewBox="0 0 64 83" fill="none" xmlns="http://www.w3.org/2000/svg">
<path d="M52.5482 55.3337L35.954 42.5647L52.5482 55.3337ZM52.5482 55.3337C60.2744 53.0723 67.687 50.2206 74.6737 46.821L52.5482 55.3337ZM52.5482 55.3337V76.6155C52.5482 76.6155 69.3083 74.2745 74.6737 68.1028C80.6476 61.2075 74.6737 46.821 74.6737 46.821M35.954 42.5647C38.8975 36.6884 42.6039 31.0556 47.0168 25.752C53.462 17.8223 62.4361 11.2934 73.0862 6.78605C83.7364 2.27875 95.708 -0.0569591 107.862 0.00105491C107.862 11.5783 103.548 31.9237 74.6737 46.821M35.954 42.5647H8.29708C8.29708 42.5647 11.3393 29.6678 19.3599 25.5391C28.3207 20.9423 47.0168 25.5391 47.0168 25.5391M11.0628 61.7183C2.76569 67.0813 0 83 0 83C0 83 20.6874 80.8718 27.6569 74.4873C31.5842 70.912 31.5289 65.4213 27.1591 62.1013C25.0091 60.5222 22.1769 59.6097 19.2063 59.539C16.2355 59.4684 13.3355 60.2443 11.0628 61.7183Z" fill="#E3A553"/>
</svg>
