<svg width="33" height="118" viewBox="0 0 33 118" fill="none" xmlns="http://www.w3.org/2000/svg">
<path d="M119.238 61.9V28.84C119.238 19.0951 119.238 14.2226 116.821 10.5006C114.696 7.22653 111.305 4.56468 107.133 2.89648C102.39 1 96.1828 1 83.7664 1H36.4713C24.0552 1 17.8471 1 13.1048 2.89648C8.93331 4.56468 5.54181 7.22653 3.41634 10.5006C1 14.2226 1 19.0951 1 28.84V89.16C1 98.9052 1 103.777 3.41634 107.5C5.54181 110.774 8.93331 113.435 13.1048 115.103C17.8471 117 24.055 117 36.4708 117H60.1189M78.5935 99.6L93.3732 111.2L126.628 85.1" stroke="#4558C8" stroke-width="2" stroke-linecap="round" stroke-linejoin="round"/>
</svg>
