<svg width="32" height="32" viewBox="0 0 32 32" fill="none" xmlns="http://www.w3.org/2000/svg">
<path d="M10.8311 31.9611C10.9157 31.9673 11.0008 31.9568 11.0803 31.9304C11.1598 31.904 11.2317 31.8624 11.291 31.8085C11.3502 31.7546 11.3953 31.6898 11.423 31.6187C11.4506 31.5476 11.4602 31.4719 11.451 31.3971C11.2392 29.6768 11.4857 27.9364 12.1708 26.3159C12.8559 24.6954 13.9604 23.24 15.3956 22.0666C15.5641 21.9278 15.7855 21.8507 16.0155 21.8507C16.2455 21.8507 16.467 21.9278 16.6355 22.0666C18.0757 23.2447 19.1827 24.7068 19.867 26.3345C20.5514 27.9622 20.7937 29.7099 20.5745 31.436C20.5662 31.5054 20.574 31.5756 20.5975 31.6422C20.621 31.7088 20.6596 31.7704 20.711 31.8233C20.7625 31.8761 20.8256 31.9191 20.8964 31.9495C20.9673 31.9799 21.0445 31.9971 21.1231 32C35.1348 30.0551 32.3424 19.5626 30.3399 14.8803C30.2538 14.6698 30.0963 14.4881 29.8891 14.3601C29.6818 14.2322 29.4349 14.1642 29.1823 14.1655C28.9809 14.1655 28.7826 14.2099 28.6054 14.2948C28.4282 14.3797 28.2777 14.5024 28.1674 14.6518C26.8631 16.3064 25.1004 17.6359 23.0488 18.5123C24.5026 6.84311 16.3611 2.03929 12.444 0.138177C12.2495 0.0416749 12.029 -0.00590149 11.8062 0.000584763C11.5834 0.00707102 11.3669 0.067374 11.18 0.174982C10.993 0.282589 10.8428 0.433411 10.7456 0.61116C10.6483 0.788909 10.6077 0.986829 10.6281 1.18355C10.9792 6.04572 5.86611 12.4249 2.88163 15.7263C0.770509 17.9961 -0.246559 20.9116 0.0507661 23.8413C0.862719 30.6386 8.33488 31.7715 10.8311 31.9611Z" fill="url(#paint0_linear_124_293)"/>
<defs>
<linearGradient id="paint0_linear_124_293" x1="16" y1="0" x2="16" y2="32" gradientUnits="userSpaceOnUse">
<stop stop-color="#4558C8"/>
<stop offset="1" stop-color="#4558C8"/>
</linearGradient>
</defs>
</svg>
