<svg width="14" height="14" viewBox="0 0 14 14" fill="none" xmlns="http://www.w3.org/2000/svg">
<path d="M4.7386 13.983C4.77562 13.9857 4.81285 13.9811 4.84763 13.9696C4.88241 13.958 4.91389 13.9398 4.93981 13.9162C4.96572 13.8927 4.98544 13.8643 4.99754 13.8332C5.00965 13.8021 5.01384 13.7689 5.00982 13.7362C4.91713 12.9836 5.02499 12.2222 5.32471 11.5132C5.62443 10.8042 6.10767 10.1675 6.73557 9.65413C6.80928 9.59342 6.90617 9.55968 7.00679 9.55968C7.10741 9.55968 7.2043 9.59342 7.27801 9.65413C7.90811 10.1696 8.39244 10.8092 8.69183 11.5214C8.99122 12.2335 9.09725 12.9981 9.00136 13.7532C8.99772 13.7836 9.00114 13.8143 9.01141 13.8434C9.02168 13.8726 9.03859 13.8996 9.06108 13.9227C9.08358 13.9458 9.11118 13.9646 9.14219 13.9779C9.1732 13.9912 9.20696 13.9987 9.24137 14C15.3715 13.1491 14.1498 8.55862 13.2737 6.51013C13.236 6.41804 13.1671 6.33855 13.0765 6.28256C12.9858 6.22657 12.8778 6.19683 12.7673 6.19743C12.6791 6.1974 12.5924 6.21684 12.5149 6.25398C12.4373 6.29112 12.3715 6.34479 12.3232 6.41015C11.7526 7.13406 10.9814 7.71569 10.0838 8.09914C10.7199 2.99386 7.158 0.892188 5.44426 0.0604526C5.35917 0.0182328 5.26268 -0.0025819 5.16522 0.000255834C5.06775 0.00309357 4.97301 0.0294761 4.89123 0.0765544C4.80945 0.123633 4.74374 0.189617 4.70119 0.267382C4.65864 0.345148 4.64086 0.431738 4.64979 0.517801C4.80341 2.645 2.56642 5.43589 1.26071 6.88026C0.337098 7.87328 -0.107869 9.14882 0.0222102 10.4306C0.37744 13.4044 3.64651 13.9 4.7386 13.983Z" fill="#292B2D"/>
</svg>
