<svg width="28" height="28" viewBox="0 0 28 28" fill="none" xmlns="http://www.w3.org/2000/svg">
<path d="M13.3643 17.7108L9.45977 13.8545M13.3643 17.7108C15.1822 17.0278 16.9264 16.1666 18.5703 15.1399M13.3643 17.7108V24.1379C13.3643 24.1379 17.3078 23.4309 18.5703 21.567C19.9759 19.4847 18.5703 15.1399 18.5703 15.1399M9.45977 13.8545C10.1524 12.0799 11.0244 10.3788 12.0628 8.77709C13.5793 6.38234 15.6908 4.41059 18.1968 3.04939C20.7027 1.68818 23.5195 0.982798 26.3793 1.00032C26.3793 4.49665 25.3641 10.6409 18.5703 15.1399M9.45977 13.8545H2.95225C2.95225 13.8545 3.66808 9.95967 5.55526 8.71282C7.6637 7.32457 12.0628 8.71282 12.0628 8.71282M3.60301 19.6389C1.65075 21.2585 1 26.066 1 26.066C1 26.066 5.86762 25.4233 7.50752 23.4952C8.43158 22.4154 8.41857 20.7572 7.39038 19.7546C6.8845 19.2777 6.2181 19.0021 5.51912 18.9808C4.82012 18.9594 4.13777 19.1938 3.60301 19.6389Z" stroke="black" stroke-width="2" stroke-linecap="round" stroke-linejoin="round"/>
</svg>
