<svg width="24" height="22" viewBox="0 0 24 22" fill="none" xmlns="http://www.w3.org/2000/svg">
<path d="M21.3034 11.5V5.8C21.3034 4.11984 21.3034 3.27976 20.8885 2.63803C20.5235 2.07354 19.9412 1.6146 19.2249 1.32698C18.4105 1 17.3445 1 15.2124 1H7.09103C4.95897 1 3.89294 1 3.0786 1.32698C2.36229 1.6146 1.77991 2.07354 1.41493 2.63803C1 3.27976 1 4.11984 1 5.8V16.2C1 17.8802 1 18.7202 1.41493 19.362C1.77991 19.9265 2.36229 20.3854 3.0786 20.673C3.89294 21 4.95894 21 7.09095 21H11.1517M14.3241 18L16.8621 20L22.5724 15.5" stroke="black" stroke-width="2" stroke-linecap="round" stroke-linejoin="round"/>
</svg>
