<svg width="228" height="48" viewBox="0 0 228 48" fill="none" xmlns="http://www.w3.org/2000/svg">
<path d="M57.4837 40.9883C56.4972 40.9883 55.7338 40.7187 55.1936 40.1793C54.6534 39.6399 54.3833 38.8543 54.3833 37.8225V26.1794C54.3833 25.171 54.6417 24.3972 55.1584 23.8578C55.6986 23.3185 56.462 23.0488 57.4485 23.0488C58.4349 23.0488 59.1866 23.3185 59.7033 23.8578C60.22 24.3972 60.4784 25.171 60.4784 26.1794V28.1141L60.0908 26.3905C60.5841 25.3587 61.3122 24.5379 62.2752 23.9282C63.2617 23.295 64.4244 22.9784 65.7632 22.9784C67.0315 22.9784 68.112 23.2833 69.0045 23.893C69.9205 24.5027 70.5782 25.429 70.9775 26.6719H70.4842C71.0245 25.5228 71.8348 24.62 72.9152 23.9634C73.9957 23.3067 75.1936 22.9784 76.5089 22.9784C77.8712 22.9784 78.9868 23.2481 79.8559 23.7875C80.725 24.3034 81.3709 25.1241 81.7937 26.2498C82.2399 27.3519 82.4631 28.7472 82.4631 30.4357V37.8225C82.4631 38.8543 82.1812 39.6399 81.6175 40.1793C81.0773 40.7187 80.3022 40.9883 79.2922 40.9883C78.3057 40.9883 77.5423 40.7187 77.0021 40.1793C76.4619 39.6399 76.1918 38.8543 76.1918 37.8225V30.6115C76.1918 29.6032 76.0391 28.8762 75.7338 28.4307C75.4284 27.9851 74.9234 27.7623 74.2188 27.7623C73.3498 27.7623 72.6804 28.0672 72.2106 28.6769C71.7643 29.2866 71.5412 30.1543 71.5412 31.2799V37.8225C71.5412 38.8543 71.2711 39.6399 70.7309 40.1793C70.1906 40.7187 69.4155 40.9883 68.4056 40.9883C67.3956 40.9883 66.6205 40.7187 66.0803 40.1793C65.54 39.6399 65.2699 38.8543 65.2699 37.8225V30.6115C65.2699 29.6032 65.1173 28.8762 64.8119 28.4307C64.5066 27.9851 64.0016 27.7623 63.2969 27.7623C62.4514 27.7623 61.7937 28.0672 61.324 28.6769C60.8777 29.2866 60.6546 30.1543 60.6546 31.2799V37.8225C60.6546 39.9331 59.5976 40.9883 57.4837 40.9883Z" fill="#292B2D"/>
<path d="M89.2045 40.9883C88.218 40.9883 87.4546 40.6952 86.9144 40.1089C86.3742 39.5227 86.1041 38.6785 86.1041 37.5763V26.4608C86.1041 25.3587 86.3742 24.5144 86.9144 23.9282C87.4546 23.3419 88.218 23.0488 89.2045 23.0488C90.2144 23.0488 90.9895 23.3419 91.5298 23.9282C92.0935 24.5144 92.3753 25.3587 92.3753 26.4608V37.5763C92.3753 38.6785 92.1052 39.5227 91.565 40.1089C91.0248 40.6952 90.2379 40.9883 89.2045 40.9883ZM89.2045 20.5513C88.1005 20.5513 87.2432 20.2934 86.6325 19.7775C86.0453 19.2616 85.7517 18.5111 85.7517 17.5262C85.7517 16.5648 86.0453 15.8261 86.6325 15.3102C87.2432 14.7943 88.1005 14.5363 89.2045 14.5363C90.3554 14.5363 91.2244 14.7943 91.8116 15.3102C92.3988 15.8261 92.6924 16.5648 92.6924 17.5262C92.6924 18.5111 92.3988 19.2616 91.8116 19.7775C91.2244 20.2934 90.3554 20.5513 89.2045 20.5513Z" fill="#292B2D"/>
<path d="M99.1134 40.9883C98.1269 40.9883 97.3636 40.7187 96.8233 40.1793C96.2831 39.6399 96.013 38.8543 96.013 37.8225V26.1794C96.013 25.171 96.2714 24.3972 96.7881 23.8578C97.3283 23.3185 98.0917 23.0488 99.0782 23.0488C100.065 23.0488 100.816 23.3185 101.333 23.8578C101.85 24.3972 102.108 25.171 102.108 26.1794V27.8327L101.721 26.3905C102.284 25.2883 103.083 24.4441 104.116 23.8578C105.173 23.2716 106.371 22.9784 107.71 22.9784C109.096 22.9784 110.235 23.2481 111.127 23.7875C112.02 24.3034 112.689 25.1241 113.136 26.2498C113.582 27.3519 113.805 28.7472 113.805 30.4357V37.8225C113.805 38.8543 113.535 39.6399 112.995 40.1793C112.455 40.7187 111.679 40.9883 110.669 40.9883C109.659 40.9883 108.884 40.7187 108.344 40.1793C107.804 39.6399 107.534 38.8543 107.534 37.8225V30.6819C107.534 29.6266 107.346 28.8762 106.97 28.4307C106.618 27.9851 106.089 27.7623 105.385 27.7623C104.445 27.7623 103.694 28.0672 103.13 28.6769C102.566 29.2631 102.284 30.0605 102.284 31.0688V37.8225C102.284 39.9331 101.227 40.9883 99.1134 40.9883Z" fill="#292B2D"/>
<path d="M124.144 41.0587C122.664 41.0587 121.349 40.6952 120.198 39.9682C119.07 39.2413 118.178 38.1977 117.52 36.8376C116.886 35.4775 116.569 33.8711 116.569 32.0186C116.569 30.1191 116.886 28.501 117.52 27.1643C118.178 25.8277 119.07 24.7958 120.198 24.0689C121.349 23.3419 122.664 22.9784 124.144 22.9784C125.436 22.9784 126.598 23.2833 127.632 23.893C128.665 24.5027 129.358 25.2883 129.71 26.2498H129.323V18.7222C129.323 17.6904 129.593 16.9048 130.133 16.3654C130.673 15.8261 131.448 15.5564 132.458 15.5564C133.445 15.5564 134.208 15.8261 134.748 16.3654C135.312 16.9048 135.594 17.6904 135.594 18.7222V37.8225C135.594 38.8543 135.324 39.6399 134.784 40.1793C134.267 40.7187 133.504 40.9883 132.494 40.9883C131.507 40.9883 130.744 40.7187 130.204 40.1793C129.663 39.6399 129.393 38.8543 129.393 37.8225V35.8175L129.781 37.5411C129.452 38.5964 128.759 39.4523 127.702 40.1089C126.669 40.7421 125.483 41.0587 124.144 41.0587ZM126.152 36.4507C126.786 36.4507 127.35 36.2983 127.843 35.9934C128.336 35.6651 128.712 35.1844 128.97 34.5512C129.252 33.8946 129.393 33.0504 129.393 32.0186C129.393 30.4474 129.088 29.3218 128.477 28.6417C127.867 27.9382 127.091 27.5864 126.152 27.5864C125.518 27.5864 124.954 27.7389 124.461 28.0437C123.968 28.3486 123.58 28.8293 123.298 29.4859C123.016 30.1191 122.875 30.9633 122.875 32.0186C122.875 33.5663 123.181 34.6919 123.791 35.3954C124.402 36.0989 125.189 36.4507 126.152 36.4507Z" fill="#292B2D"/>
<path d="M148.07 41.0587C146.121 41.0587 144.418 40.6952 142.962 39.9682C141.529 39.2413 140.413 38.1977 139.615 36.8376C138.816 35.454 138.417 33.836 138.417 31.9834C138.417 30.5764 138.64 29.3218 139.086 28.2196C139.532 27.094 140.178 26.1442 141.024 25.3704C141.893 24.5965 142.915 24.0103 144.089 23.6116C145.287 23.1895 146.614 22.9784 148.07 22.9784C148.751 22.9784 149.468 23.0488 150.219 23.1895C150.971 23.3067 151.746 23.5412 152.545 23.893C153.108 24.1041 153.496 24.4324 153.707 24.8779C153.942 25.3 154.036 25.7573 153.989 26.2498C153.966 26.7422 153.825 27.1878 153.566 27.5864C153.332 27.9851 152.991 28.2548 152.545 28.3955C152.122 28.5362 151.64 28.4776 151.1 28.2196C150.724 28.032 150.325 27.903 149.902 27.8327C149.503 27.7389 149.115 27.692 148.74 27.692C148.105 27.692 147.542 27.7858 147.049 27.9734C146.579 28.161 146.179 28.4424 145.851 28.8176C145.522 29.1693 145.263 29.6149 145.076 30.1543C144.911 30.6936 144.829 31.3033 144.829 31.9834C144.829 33.3435 145.17 34.4105 145.851 35.1844C146.532 35.9582 147.495 36.3452 148.74 36.3452C149.115 36.3452 149.503 36.31 149.902 36.2396C150.302 36.1458 150.701 36.0051 151.1 35.8175C151.64 35.5596 152.122 35.5127 152.545 35.6768C152.967 35.8175 153.308 36.0872 153.566 36.4859C153.825 36.8845 153.966 37.3301 153.989 37.8225C154.013 38.2915 153.907 38.7488 153.672 39.1944C153.437 39.6165 153.038 39.9331 152.474 40.1441C151.699 40.4959 150.936 40.7304 150.184 40.8476C149.456 40.9883 148.751 41.0587 148.07 41.0587Z" fill="#292B2D"/>
<path d="M162.283 41.0587C160.944 41.0587 159.758 40.8125 158.724 40.32C157.714 39.8275 156.916 39.1592 156.329 38.315C155.765 37.4473 155.483 36.4624 155.483 35.3602C155.483 34.0939 155.812 33.0973 156.469 32.3703C157.127 31.6434 158.184 31.1274 159.64 30.8226C161.097 30.4943 163.034 30.3301 165.454 30.3301H167.391V33.2849H165.454C164.538 33.2849 163.774 33.3552 163.164 33.4959C162.576 33.6132 162.142 33.8125 161.86 34.0939C161.578 34.3519 161.437 34.6919 161.437 35.114C161.437 35.6534 161.625 36.0989 162.001 36.4507C162.4 36.8024 162.964 36.9783 163.692 36.9783C164.279 36.9783 164.796 36.8493 165.242 36.5914C165.712 36.3334 166.088 35.9817 166.37 35.5361C166.651 35.0671 166.792 34.5278 166.792 33.918V29.8377C166.792 28.9935 166.569 28.3955 166.123 28.0437C165.7 27.692 164.96 27.5161 163.903 27.5161C163.34 27.5161 162.706 27.5864 162.001 27.7271C161.296 27.8444 160.509 28.0672 159.64 28.3955C159.006 28.63 158.466 28.6652 158.02 28.501C157.573 28.3368 157.221 28.0554 156.963 27.6568C156.728 27.2581 156.61 26.8243 156.61 26.3553C156.634 25.8863 156.787 25.4407 157.068 25.0186C157.374 24.5965 157.832 24.2682 158.442 24.0337C159.57 23.6116 160.603 23.3302 161.543 23.1895C162.506 23.0488 163.387 22.9784 164.185 22.9784C166.111 22.9784 167.697 23.2598 168.942 23.8227C170.21 24.362 171.149 25.2062 171.76 26.3553C172.394 27.4809 172.711 28.9348 172.711 30.7171V37.8225C172.711 38.8543 172.465 39.6399 171.971 40.1793C171.478 40.7187 170.762 40.9883 169.822 40.9883C168.859 40.9883 168.119 40.7187 167.603 40.1793C167.109 39.6399 166.863 38.8543 166.863 37.8225V36.908L167.074 37.4004C166.957 38.1508 166.687 38.7957 166.264 39.3351C165.841 39.8744 165.289 40.2965 164.608 40.6014C163.927 40.9063 163.152 41.0587 162.283 41.0587Z" fill="#292B2D"/>
<path d="M179.489 40.9883C178.455 40.9883 177.656 40.7187 177.093 40.1793C176.553 39.6399 176.282 38.8543 176.282 37.8225V26.1794C176.282 25.171 176.541 24.3972 177.058 23.8578C177.598 23.3185 178.361 23.0488 179.348 23.0488C180.334 23.0488 181.086 23.3185 181.602 23.8578C182.119 24.3972 182.378 25.171 182.378 26.1794V27.6216H182.025C182.26 26.2146 182.859 25.1007 183.822 24.2799C184.809 23.4592 186.03 23.0253 187.486 22.9784C188.167 22.955 188.672 23.1309 189.001 23.5061C189.353 23.8578 189.541 24.5262 189.565 25.5111C189.565 26.3553 189.389 27.0236 189.036 27.5161C188.684 28.0085 188.015 28.3017 187.028 28.3955L186.218 28.4658C184.973 28.5831 184.069 28.9348 183.505 29.5211C182.941 30.0839 182.659 30.9281 182.659 32.0537V37.8225C182.659 38.8543 182.389 39.6399 181.849 40.1793C181.309 40.7187 180.522 40.9883 179.489 40.9883Z" fill="#292B2D"/>
<path d="M198.014 41.0587C196.534 41.0587 195.219 40.6952 194.068 39.9682C192.94 39.2413 192.048 38.1977 191.39 36.8376C190.756 35.4775 190.439 33.8711 190.439 32.0186C190.439 30.1191 190.756 28.501 191.39 27.1643C192.048 25.8277 192.94 24.7958 194.068 24.0689C195.219 23.3419 196.534 22.9784 198.014 22.9784C199.305 22.9784 200.468 23.2833 201.502 23.893C202.535 24.5027 203.228 25.2883 203.58 26.2498H203.193V18.7222C203.193 17.6904 203.463 16.9048 204.003 16.3654C204.543 15.8261 205.318 15.5564 206.328 15.5564C207.315 15.5564 208.078 15.8261 208.618 16.3654C209.182 16.9048 209.464 17.6904 209.464 18.7222V37.8225C209.464 38.8543 209.194 39.6399 208.654 40.1793C208.137 40.7187 207.374 40.9883 206.364 40.9883C205.377 40.9883 204.614 40.7187 204.073 40.1793C203.533 39.6399 203.263 38.8543 203.263 37.8225V35.8175L203.651 37.5411C203.322 38.5964 202.629 39.4523 201.572 40.1089C200.539 40.7421 199.352 41.0587 198.014 41.0587ZM200.022 36.4507C200.656 36.4507 201.22 36.2983 201.713 35.9934C202.206 35.6651 202.582 35.1844 202.84 34.5512C203.122 33.8946 203.263 33.0504 203.263 32.0186C203.263 30.4474 202.958 29.3218 202.347 28.6417C201.736 27.9382 200.961 27.5864 200.022 27.5864C199.388 27.5864 198.824 27.7389 198.331 28.0437C197.837 28.3486 197.45 28.8293 197.168 29.4859C196.886 30.1191 196.745 30.9633 196.745 32.0186C196.745 33.5663 197.051 34.6919 197.661 35.3954C198.272 36.0989 199.059 36.4507 200.022 36.4507Z" fill="#292B2D"/>
<path d="M220.002 41.0587C218.969 41.0587 217.912 40.9766 216.832 40.8125C215.775 40.6718 214.812 40.4021 213.943 40.0034C213.355 39.7689 212.933 39.4523 212.674 39.0537C212.439 38.655 212.322 38.2329 212.322 37.7874C212.345 37.3418 212.475 36.9431 212.709 36.5914C212.968 36.2162 213.297 35.9582 213.696 35.8175C214.119 35.6534 214.588 35.6651 215.105 35.8527C216.092 36.2045 216.972 36.4624 217.748 36.6266C218.546 36.7673 219.309 36.8376 220.038 36.8376C220.907 36.8376 221.529 36.7204 221.905 36.4859C222.281 36.2279 222.469 35.8996 222.469 35.5009C222.469 35.1492 222.339 34.8795 222.081 34.6919C221.846 34.5043 221.506 34.3753 221.059 34.305L217.149 33.6718C215.692 33.4139 214.565 32.8862 213.766 32.0889C212.968 31.2681 212.568 30.2012 212.568 28.8879C212.568 27.6685 212.909 26.625 213.59 25.7573C214.295 24.8662 215.246 24.1861 216.444 23.7171C217.665 23.2247 219.063 22.9784 220.637 22.9784C221.694 22.9784 222.657 23.0605 223.526 23.2247C224.395 23.3654 225.24 23.635 226.062 24.0337C226.579 24.2448 226.943 24.5496 227.154 24.9483C227.366 25.3469 227.448 25.769 227.401 26.2146C227.354 26.6367 227.201 27.0354 226.943 27.4106C226.708 27.7623 226.379 28.0085 225.957 28.1492C225.534 28.2665 225.041 28.2313 224.477 28.0437C223.702 27.7389 223.009 27.5161 222.398 27.3754C221.811 27.2347 221.259 27.1643 220.742 27.1643C219.779 27.1643 219.098 27.2933 218.699 27.5513C218.3 27.8092 218.1 28.1375 218.1 28.5362C218.1 28.841 218.206 29.099 218.417 29.31C218.628 29.4976 218.957 29.6266 219.403 29.697L223.314 30.3653C224.817 30.5998 225.968 31.1157 226.767 31.913C227.589 32.6869 228 33.7422 228 35.0788C228 36.9783 227.272 38.4557 225.816 39.511C224.359 40.5428 222.422 41.0587 220.002 41.0587Z" fill="#292B2D"/>
<path d="M43.4171 34.2189C43.1021 32.4129 42.5157 30.2822 41.8301 27.7896L37.0336 10.3552C36.2397 7.4697 35.5798 5.06992 34.7932 3.23496C34.6796 2.96985 34.561 2.71044 34.4358 2.45743C37.925 2.59089 40.0504 3.03448 41.5408 4.5088C43.6728 6.61763 43.6728 10.0117 43.6728 16.8V26.4C43.6728 29.7473 43.6728 32.2694 43.4171 34.2189Z" fill="#292B2D"/>
<path d="M1.80253 19.7436C0.138475 13.695 -0.69354 10.6707 0.71879 8.2882C2.13114 5.90565 5.23625 5.09531 11.4465 3.47459L18.0335 1.75557C24.2437 0.134876 27.3489 -0.675483 29.795 0.700075C32.2414 2.07563 33.0734 5.09992 34.7373 11.1485L39.4441 28.2564C41.108 34.3048 41.94 37.3293 40.5276 39.7118C39.1153 42.0943 36.0102 42.9048 29.7999 44.5252L23.2131 46.2443C17.0028 47.8651 13.8976 48.6755 11.4514 47.2999C9.00517 45.9244 8.17315 42.9 6.50912 36.8515L1.80253 19.7436Z" fill="#4558C8"/>
</svg>
