<svg width="68" height="90" viewBox="0 0 68 90" fill="none" xmlns="http://www.w3.org/2000/svg">
<path d="M33.546 48.8889C41.0507 48.8889 47.8456 45.909 52.7667 41.0902C61.9461 47.0584 67.9983 57.2807 67.9983 68.8889L67.9989 72.7375C67.9993 75.6166 66.7905 78.4005 64.4667 80.1003C55.9659 86.3187 45.4211 90 33.9993 90C22.5777 90 12.033 86.3188 3.5323 80.1006C1.2086 78.4009 -0.000299944 75.6172 5.58221e-08 72.7383L0.00029951 68.8889L0.00199896 68.5479C0.116999 57.3075 5.9066 47.3992 14.6963 41.4452C19.5849 46.0554 26.2279 48.8889 33.546 48.8889Z" fill="#292B2D"/>
<path d="M10.8799 22.2222C10.8799 9.9492 21.0278 0 33.5459 0C46.064 0 56.2119 9.9492 56.2119 22.2222C56.2119 34.4952 46.064 44.4444 33.5459 44.4444C21.0278 44.4444 10.8799 34.4952 10.8799 22.2222Z" fill="#292B2D"/>
</svg>
