<svg width="94" height="94" viewBox="0 0 94 94" fill="none" xmlns="http://www.w3.org/2000/svg">
<path d="M46.875 0C21 0 0 21 0 46.875C0 72.75 21 93.75 46.875 93.75C72.75 93.75 93.75 72.75 93.75 46.875C93.75 21 72.75 0 46.875 0ZM46.875 1.9531C71.695 1.9531 91.797 22.0551 91.797 46.8751C91.797 69.0631 75.735 87.4611 54.598 91.1251C58.2464 88.3829 61.2191 85.0353 63.5003 81.3634C65.0901 78.8087 67.9886 74.8712 70.1565 73.0314L82.9965 62.1524C85.3637 60.1446 84.5473 56.1954 81.5746 55.2969L73.7426 52.9297C72.8246 52.6524 72.0434 51.4766 72.1215 50.5039C72.3832 47.2812 72.4574 44.5977 72.4574 42.7969C72.4574 28.6679 60.9924 17.1879 46.8714 17.1879C32.7504 17.1879 21.2854 28.6649 21.2854 42.7969C21.2854 45.1446 21.6565 47.7657 22.0979 50.543C22.2464 51.4727 21.5628 52.5586 20.6682 52.8321L12.5666 55.2813C9.59394 56.1797 8.77364 60.129 11.1408 62.1368L20.7306 70.2735C21.1681 70.6446 21.5627 71.2852 21.7501 71.961C21.9376 72.6368 21.9103 73.3165 21.6955 73.7813C20.633 76.0899 19.0197 78.2344 16.6799 80.1485C7.62905 71.9337 1.94985 60.0705 1.94985 46.8755C1.94985 22.0555 22.0519 1.9535 46.8719 1.9535L46.875 1.9531ZM46.875 19.1411C59.937 19.1411 70.508 29.7191 70.508 42.7971C70.508 44.5432 70.4377 47.1799 70.1799 50.344C70.0197 52.3167 71.2697 54.219 73.1799 54.7971L81.0119 57.1643C82.6017 57.6448 83.0041 59.5862 81.7345 60.6604L68.8945 71.5394C66.3554 73.6917 63.5117 77.6449 61.8437 80.3285C59.082 84.7738 55.3007 88.7387 50.4457 91.6405C49.266 91.7343 48.0785 91.7928 46.8754 91.7928C35.9614 91.7928 25.9654 87.9061 18.1844 81.4408C20.6102 79.39 22.3289 77.0736 23.4735 74.5892C23.9384 73.5814 23.9188 72.4564 23.6376 71.433C23.3524 70.4096 22.8017 69.4603 21.997 68.7768L12.4072 60.6401C11.1377 59.562 11.54 57.6245 13.1338 57.144L21.2354 54.6948C23.1338 54.1206 24.3409 52.187 24.0323 50.2339C23.5948 47.4761 23.2432 44.9292 23.2432 42.7925C23.2432 29.7185 33.8132 19.1365 46.8762 19.1365L46.875 19.1411ZM39.2578 30.6641C36.0351 30.6641 33.3984 33.3008 33.3984 36.5235C33.3984 39.7462 36.0351 42.3829 39.2578 42.3829C42.4805 42.3829 45.1172 39.7462 45.1172 36.5235C45.1172 33.3008 42.4805 30.6641 39.2578 30.6641ZM54.8828 30.6641C51.6601 30.6641 49.0234 33.3008 49.0234 36.5235C49.0234 39.7462 51.6601 42.3829 54.8828 42.3829C58.1055 42.3829 60.7422 39.7462 60.7422 36.5235C60.7422 33.3008 58.1055 30.6641 54.8828 30.6641ZM39.2578 32.6172C41.4258 32.6172 43.164 34.3555 43.164 36.5234C43.164 38.6914 41.4257 40.4296 39.2578 40.4296C37.0898 40.4296 35.3516 38.6913 35.3516 36.5234C35.3516 34.3554 37.0899 32.6172 39.2578 32.6172ZM54.8828 32.6172C57.0508 32.6172 58.789 34.3555 58.789 36.5234C58.789 38.6914 57.0507 40.4296 54.8828 40.4296C52.7148 40.4296 50.9766 38.6913 50.9766 36.5234C50.9766 34.3554 52.7149 32.6172 54.8828 32.6172ZM47.0703 43.7502C44.7656 43.7502 42.6641 44.2619 41.0664 45.1643C39.4687 46.0627 38.2812 47.4416 38.2812 49.1213C38.2812 49.9611 38.6328 50.7541 39.1953 51.2932C39.7578 51.8323 40.4765 52.1565 41.2773 52.387C42.8789 52.844 44.8828 52.93 47.0703 52.93C49.2578 52.93 51.2617 52.844 52.8633 52.387C53.664 52.1565 54.3828 51.8323 54.9453 51.2932C55.5078 50.7541 55.8593 49.9651 55.8593 49.1213C55.8593 47.4377 54.6718 46.0627 53.0741 45.1643C51.4764 44.2659 49.375 43.7502 47.0703 43.7502ZM47.0703 45.7033C49.0781 45.7033 50.8867 46.172 52.1172 46.8635C53.3477 47.5549 53.9063 48.3752 53.9063 49.1213C53.9063 49.4924 53.8204 49.6643 53.5938 49.883C53.3672 50.1018 52.9415 50.3322 52.3282 50.508C51.1016 50.8596 49.1993 50.9768 47.0743 50.9768C44.9493 50.9768 43.047 50.8596 41.8204 50.508C41.2071 50.3322 40.7813 50.1018 40.5548 49.883C40.3282 49.6643 40.2423 49.4924 40.2423 49.1213C40.2423 48.3752 40.8048 47.5549 42.0314 46.8635C43.2619 46.1721 45.0666 45.7033 47.0783 45.7033H47.0703Z" fill="#292B2D"/>
</svg>
