<svg width="119" height="131" viewBox="0 0 119 131" fill="none" xmlns="http://www.w3.org/2000/svg">
<path d="M118.303 93.3892C117.445 88.4603 115.847 82.6452 113.979 75.8424L100.909 28.261C98.7462 20.3861 96.948 13.8367 94.8047 8.82873C94.4953 8.10522 94.172 7.39723 93.8308 6.70673C103.338 7.07098 109.13 8.28161 113.191 12.3053C119 18.0606 119 27.3237 119 45.8499V72.0499C119 81.1852 119 88.0686 118.303 93.3892Z" fill="#292B2D"/>
<path d="M4.91155 53.8835C0.377317 37.376 -1.88976 29.1222 1.95856 22.6199C5.80696 16.1175 14.2678 13.906 31.1896 9.48275L49.1378 4.79124C66.0596 0.368099 74.5205 -1.84351 81.1858 1.91062C87.8518 5.66475 90.1187 13.9185 94.6526 30.426L101.065 53.7712L107.477 77.1163C112.011 93.6236 114.278 101.878 110.43 108.38C106.582 114.882 98.1208 117.094 81.199 121.517L63.2512 126.209C46.3293 130.632 37.8684 132.844 31.2029 129.089C24.5374 125.335 22.2703 117.081 17.7361 100.574L4.91155 53.8835Z" fill="#4558C8"/>
</svg>
